<mxfile host="" modified="2020-05-24T15:21:41.060Z" agent="5.0 (X11; Linux x86_64) AppleWebKit/537.36 (KHTML, like Gecko) Code/1.45.0 Chrome/78.0.3904.130 Electron/7.2.4 Safari/537.36" version="13.1.3" etag="lrwgP8mNOWNbAz78NI_h" pages="2">
            <diagram id="diagramid" name="Diagram">
              <mxGraphModel><root><mxCell id="0"/><mxCell id="1" parent="0"/><mxCell id="2" value="DependencyLayer" style="outlineConnect=0;fontColor=#B3B3B3;gradientColor=#aaaaaa;gradientDirection=north;fillColor=#aaaaaa;strokeColor=#ffffff;dashed=0;verticalLabelPosition=bottom;verticalAlign=top;align=center;html=1;fontSize=12;fontStyle=0;aspect=fixed;shape=mxgraph.aws4.resourceIcon;resIcon=mxgraph.aws4.serverless;" vertex="1" parent="1"><mxGeometry y="1300" width="50" height="50" as="geometry"/></mxCell><mxCell id="3" value="GopherHolesApi" style="outlineConnect=0;fontColor=#B3B3B3;gradientColor=#945DF2;gradientDirection=north;fillColor=#5A30B5;strokeColor=#ffffff;dashed=0;verticalLabelPosition=bottom;verticalAlign=top;align=center;html=1;fontSize=12;fontStyle=0;aspect=fixed;shape=mxgraph.aws4.resourceIcon;resIcon=mxgraph.aws4.api_gateway;" vertex="1" parent="1"><mxGeometry y="125" width="50" height="50" as="geometry"/></mxCell><mxCell id="4" value="AddGopherRole" style="outlineConnect=0;fontColor=#B3B3B3;gradientColor=#F54749;gradientDirection=north;fillColor=#C7131F;strokeColor=#ffffff;dashed=0;verticalLabelPosition=bottom;verticalAlign=top;align=center;html=1;fontSize=12;fontStyle=0;aspect=fixed;shape=mxgraph.aws4.resourceIcon;resIcon=mxgraph.aws4.role;" vertex="1" parent="1"><mxGeometry y="225" width="50" height="50" as="geometry"/></mxCell><mxCell id="5" value="GetAllGophersRole" style="outlineConnect=0;fontColor=#B3B3B3;gradientColor=#F54749;gradientDirection=north;fillColor=#C7131F;strokeColor=#ffffff;dashed=0;verticalLabelPosition=bottom;verticalAlign=top;align=center;html=1;fontSize=12;fontStyle=0;aspect=fixed;shape=mxgraph.aws4.resourceIcon;resIcon=mxgraph.aws4.role;" vertex="1" parent="1"><mxGeometry y="325" width="50" height="50" as="geometry"/></mxCell><mxCell id="6" value="DeleteGopherRole" style="outlineConnect=0;fontColor=#B3B3B3;gradientColor=#F54749;gradientDirection=north;fillColor=#C7131F;strokeColor=#ffffff;dashed=0;verticalLabelPosition=bottom;verticalAlign=top;align=center;html=1;fontSize=12;fontStyle=0;aspect=fixed;shape=mxgraph.aws4.resourceIcon;resIcon=mxgraph.aws4.role;" vertex="1" parent="1"><mxGeometry y="425" width="50" height="50" as="geometry"/></mxCell><mxCell id="7" value="AddHoleRole" style="outlineConnect=0;fontColor=#B3B3B3;gradientColor=#F54749;gradientDirection=north;fillColor=#C7131F;strokeColor=#ffffff;dashed=0;verticalLabelPosition=bottom;verticalAlign=top;align=center;html=1;fontSize=12;fontStyle=0;aspect=fixed;shape=mxgraph.aws4.resourceIcon;resIcon=mxgraph.aws4.role;" vertex="1" parent="1"><mxGeometry y="525" width="50" height="50" as="geometry"/></mxCell><mxCell id="8" value="AddHoleStatusRole" style="outlineConnect=0;fontColor=#B3B3B3;gradientColor=#F54749;gradientDirection=north;fillColor=#C7131F;strokeColor=#ffffff;dashed=0;verticalLabelPosition=bottom;verticalAlign=top;align=center;html=1;fontSize=12;fontStyle=0;aspect=fixed;shape=mxgraph.aws4.resourceIcon;resIcon=mxgraph.aws4.role;" vertex="1" parent="1"><mxGeometry y="625" width="50" height="50" as="geometry"/></mxCell><mxCell id="9" value="GetAllHolesRole" style="outlineConnect=0;fontColor=#B3B3B3;gradientColor=#F54749;gradientDirection=north;fillColor=#C7131F;strokeColor=#ffffff;dashed=0;verticalLabelPosition=bottom;verticalAlign=top;align=center;html=1;fontSize=12;fontStyle=0;aspect=fixed;shape=mxgraph.aws4.resourceIcon;resIcon=mxgraph.aws4.role;" vertex="1" parent="1"><mxGeometry y="725" width="50" height="50" as="geometry"/></mxCell><mxCell id="10" value="GopherStatusChangedSNSTopic" style="outlineConnect=0;fontColor=#B3B3B3;gradientColor=#F34482;gradientDirection=north;fillColor=#BC1356;strokeColor=#ffffff;dashed=0;verticalLabelPosition=bottom;verticalAlign=top;align=center;html=1;fontSize=12;fontStyle=0;aspect=fixed;shape=mxgraph.aws4.resourceIcon;resIcon=mxgraph.aws4.sns;" vertex="1" parent="1"><mxGeometry x="500" y="50" width="50" height="50" as="geometry"/></mxCell><mxCell id="11" value="GopherAddedSNSTopic" style="outlineConnect=0;fontColor=#B3B3B3;gradientColor=#F34482;gradientDirection=north;fillColor=#BC1356;strokeColor=#ffffff;dashed=0;verticalLabelPosition=bottom;verticalAlign=top;align=center;html=1;fontSize=12;fontStyle=0;aspect=fixed;shape=mxgraph.aws4.resourceIcon;resIcon=mxgraph.aws4.sns;" vertex="1" parent="1"><mxGeometry x="750" y="875" width="50" height="50" as="geometry"/></mxCell><mxCell id="12" value="GopherUpdatedSNSTopic" style="outlineConnect=0;fontColor=#B3B3B3;gradientColor=#F34482;gradientDirection=north;fillColor=#BC1356;strokeColor=#ffffff;dashed=0;verticalLabelPosition=bottom;verticalAlign=top;align=center;html=1;fontSize=12;fontStyle=0;aspect=fixed;shape=mxgraph.aws4.resourceIcon;resIcon=mxgraph.aws4.sns;" vertex="1" parent="1"><mxGeometry x="500" y="750" width="50" height="50" as="geometry"/></mxCell><mxCell id="13" value="AddGopherStatusFunction" style="outlineConnect=0;fontColor=#B3B3B3;gradientColor=#F78E04;gradientDirection=north;fillColor=#D05C17;strokeColor=#ffffff;dashed=0;verticalLabelPosition=bottom;verticalAlign=top;align=center;html=1;fontSize=12;fontStyle=0;aspect=fixed;shape=mxgraph.aws4.resourceIcon;resIcon=mxgraph.aws4.lambda;" vertex="1" parent="1"><mxGeometry x="250" y="25" width="50" height="50" as="geometry"/></mxCell><mxCell id="14" value="GetGopherFunction" style="outlineConnect=0;fontColor=#B3B3B3;gradientColor=#F78E04;gradientDirection=north;fillColor=#D05C17;strokeColor=#ffffff;dashed=0;verticalLabelPosition=bottom;verticalAlign=top;align=center;html=1;fontSize=12;fontStyle=0;aspect=fixed;shape=mxgraph.aws4.resourceIcon;resIcon=mxgraph.aws4.lambda;" vertex="1" parent="1"><mxGeometry x="250" y="125" width="50" height="50" as="geometry"/></mxCell><mxCell id="15" value="UpdateGopherFunction" style="outlineConnect=0;fontColor=#B3B3B3;gradientColor=#F78E04;gradientDirection=north;fillColor=#D05C17;strokeColor=#ffffff;dashed=0;verticalLabelPosition=bottom;verticalAlign=top;align=center;html=1;fontSize=12;fontStyle=0;aspect=fixed;shape=mxgraph.aws4.resourceIcon;resIcon=mxgraph.aws4.lambda;" vertex="1" parent="1"><mxGeometry x="250" y="225" width="50" height="50" as="geometry"/></mxCell><mxCell id="16" value="GetHoleFunction" style="outlineConnect=0;fontColor=#B3B3B3;gradientColor=#F78E04;gradientDirection=north;fillColor=#D05C17;strokeColor=#ffffff;dashed=0;verticalLabelPosition=bottom;verticalAlign=top;align=center;html=1;fontSize=12;fontStyle=0;aspect=fixed;shape=mxgraph.aws4.resourceIcon;resIcon=mxgraph.aws4.lambda;" vertex="1" parent="1"><mxGeometry x="250" y="325" width="50" height="50" as="geometry"/></mxCell><mxCell id="17" value="UpdateHoleFunction" style="outlineConnect=0;fontColor=#B3B3B3;gradientColor=#F78E04;gradientDirection=north;fillColor=#D05C17;strokeColor=#ffffff;dashed=0;verticalLabelPosition=bottom;verticalAlign=top;align=center;html=1;fontSize=12;fontStyle=0;aspect=fixed;shape=mxgraph.aws4.resourceIcon;resIcon=mxgraph.aws4.lambda;" vertex="1" parent="1"><mxGeometry x="250" y="425" width="50" height="50" as="geometry"/></mxCell><mxCell id="18" value="GopherHolesTableStream" style="outlineConnect=0;fontColor=#B3B3B3;gradientColor=#F78E04;gradientDirection=north;fillColor=#D05C17;strokeColor=#ffffff;dashed=0;verticalLabelPosition=bottom;verticalAlign=top;align=center;html=1;fontSize=12;fontStyle=0;aspect=fixed;shape=mxgraph.aws4.resourceIcon;resIcon=mxgraph.aws4.lambda;" vertex="1" parent="1"><mxGeometry x="250" y="975" width="50" height="50" as="geometry"/></mxCell><mxCell id="19" value="GopherHolesTable" style="outlineConnect=0;fontColor=#B3B3B3;gradientColor=#4D72F3;gradientDirection=north;fillColor=#3334B9;strokeColor=#ffffff;dashed=0;verticalLabelPosition=bottom;verticalAlign=top;align=center;html=1;fontSize=12;fontStyle=0;aspect=fixed;shape=mxgraph.aws4.resourceIcon;resIcon=mxgraph.aws4.dynamodb;" vertex="1" parent="1"><mxGeometry x="750" y="175" width="50" height="50" as="geometry"/></mxCell><mxCell id="20" value="ProcessTableStream" style="outlineConnect=0;fontColor=#B3B3B3;gradientColor=#F78E04;gradientDirection=north;fillColor=#D05C17;strokeColor=#ffffff;dashed=0;verticalLabelPosition=bottom;verticalAlign=top;align=center;html=1;fontSize=12;fontStyle=0;aspect=fixed;shape=mxgraph.aws4.resourceIcon;resIcon=mxgraph.aws4.lambda;" vertex="1" parent="1"><mxGeometry y="825" width="50" height="50" as="geometry"/></mxCell><mxCell id="21" value="ProcessTableDeadLetterQueue" style="outlineConnect=0;fontColor=#B3B3B3;gradientColor=#F34482;gradientDirection=north;fillColor=#BC1356;strokeColor=#ffffff;dashed=0;verticalLabelPosition=bottom;verticalAlign=top;align=center;html=1;fontSize=12;fontStyle=0;aspect=fixed;shape=mxgraph.aws4.resourceIcon;resIcon=mxgraph.aws4.sqs;" vertex="1" parent="1"><mxGeometry x="500" y="900" width="50" height="50" as="geometry"/></mxCell><mxCell id="22" value="LinkUnlinkGopherHoleFunction" style="outlineConnect=0;fontColor=#B3B3B3;gradientColor=#F78E04;gradientDirection=north;fillColor=#D05C17;strokeColor=#ffffff;dashed=0;verticalLabelPosition=bottom;verticalAlign=top;align=center;html=1;fontSize=12;fontStyle=0;aspect=fixed;shape=mxgraph.aws4.resourceIcon;resIcon=mxgraph.aws4.lambda;" vertex="1" parent="1"><mxGeometry x="250" y="1125" width="50" height="50" as="geometry"/></mxCell><mxCell id="23" value="LinkUnlinkGopherHoleDeliveryDLQ" style="outlineConnect=0;fontColor=#B3B3B3;gradientColor=#F34482;gradientDirection=north;fillColor=#BC1356;strokeColor=#ffffff;dashed=0;verticalLabelPosition=bottom;verticalAlign=top;align=center;html=1;fontSize=12;fontStyle=0;aspect=fixed;shape=mxgraph.aws4.resourceIcon;resIcon=mxgraph.aws4.sqs;" vertex="1" parent="1"><mxGeometry y="1125" width="50" height="50" as="geometry"/></mxCell><mxCell id="24" value="LinkUnlinkGopherHoleProcessorDLQ" style="outlineConnect=0;fontColor=#B3B3B3;gradientColor=#F34482;gradientDirection=north;fillColor=#BC1356;strokeColor=#ffffff;dashed=0;verticalLabelPosition=bottom;verticalAlign=top;align=center;html=1;fontSize=12;fontStyle=0;aspect=fixed;shape=mxgraph.aws4.resourceIcon;resIcon=mxgraph.aws4.sqs;" vertex="1" parent="1"><mxGeometry x="500" y="1150" width="50" height="50" as="geometry"/></mxCell><mxCell id="25" value="AddGopherStateMachine" style="outlineConnect=0;fontColor=#B3B3B3;gradientColor=#F34482;gradientDirection=north;fillColor=#BC1356;strokeColor=#ffffff;dashed=0;verticalLabelPosition=bottom;verticalAlign=top;align=center;html=1;fontSize=12;fontStyle=0;aspect=fixed;shape=mxgraph.aws4.resourceIcon;resIcon=mxgraph.aws4.step_functions;" vertex="1" parent="1"><mxGeometry x="500" y="1050" width="50" height="50" as="geometry"/></mxCell><mxCell id="26" value="LinkUnlinkGopherHoleFunctionGopherHoleLinkedEvent" style="outlineConnect=0;fontColor=#B3B3B3;gradientColor=#F34482;gradientDirection=north;fillColor=#BC1356;strokeColor=#ffffff;dashed=0;verticalLabelPosition=bottom;verticalAlign=top;align=center;html=1;fontSize=12;fontStyle=0;aspect=fixed;shape=mxgraph.aws4.resourceIcon;resIcon=mxgraph.aws4.eventbridge;" vertex="1" parent="1"><mxGeometry y="925" width="50" height="50" as="geometry"/></mxCell><mxCell id="27" value="iam  aws&#xA;policy/awsxraydaemonwriteaccess" style="outlineConnect=0;fontColor=#B3B3B3;gradientColor=#aaaaaa;gradientDirection=north;fillColor=#aaaaaa;strokeColor=#ffffff;dashed=0;verticalLabelPosition=bottom;verticalAlign=top;align=center;html=1;fontSize=12;fontStyle=0;aspect=fixed;shape=mxgraph.aws4.resourceIcon;resIcon=mxgraph.aws4.identity_and_access_management;" vertex="1" parent="1"><mxGeometry x="250" y="675" width="50" height="50" as="geometry"/></mxCell><mxCell id="28" value="events  &#xA;event-bus/default" style="outlineConnect=0;fontColor=#B3B3B3;gradientColor=#aaaaaa;gradientDirection=north;fillColor=#aaaaaa;strokeColor=#ffffff;dashed=0;verticalLabelPosition=bottom;verticalAlign=top;align=center;html=1;fontSize=12;fontStyle=0;aspect=fixed;shape=mxgraph.aws4.resourceIcon;resIcon=mxgraph.aws4.eventbridge;" vertex="1" parent="1"><mxGeometry x="750" y="275" width="50" height="50" as="geometry"/></mxCell><mxCell id="29" value="states  &#xA;getitem" style="outlineConnect=0;fontColor=#B3B3B3;gradientColor=#aaaaaa;gradientDirection=north;fillColor=#aaaaaa;strokeColor=#ffffff;dashed=0;verticalLabelPosition=bottom;verticalAlign=top;align=center;html=1;fontSize=12;fontStyle=0;aspect=fixed;shape=mxgraph.aws4.resourceIcon;resIcon=mxgraph.aws4.states;" vertex="1" parent="1"><mxGeometry x="750" y="1050" width="50" height="50" as="geometry"/></mxCell><mxCell id="30" value="states  &#xA;putevents" style="outlineConnect=0;fontColor=#B3B3B3;gradientColor=#aaaaaa;gradientDirection=north;fillColor=#aaaaaa;strokeColor=#ffffff;dashed=0;verticalLabelPosition=bottom;verticalAlign=top;align=center;html=1;fontSize=12;fontStyle=0;aspect=fixed;shape=mxgraph.aws4.resourceIcon;resIcon=mxgraph.aws4.states;" vertex="1" parent="1"><mxGeometry x="750" y="375" width="50" height="50" as="geometry"/></mxCell><mxCell id="31" value="states  &#xA;updateitem" style="outlineConnect=0;fontColor=#B3B3B3;gradientColor=#aaaaaa;gradientDirection=north;fillColor=#aaaaaa;strokeColor=#ffffff;dashed=0;verticalLabelPosition=bottom;verticalAlign=top;align=center;html=1;fontSize=12;fontStyle=0;aspect=fixed;shape=mxgraph.aws4.resourceIcon;resIcon=mxgraph.aws4.states;" vertex="1" parent="1"><mxGeometry x="750" y="475" width="50" height="50" as="geometry"/></mxCell><mxCell id="32" value="states  &#xA;putitem" style="outlineConnect=0;fontColor=#B3B3B3;gradientColor=#aaaaaa;gradientDirection=north;fillColor=#aaaaaa;strokeColor=#ffffff;dashed=0;verticalLabelPosition=bottom;verticalAlign=top;align=center;html=1;fontSize=12;fontStyle=0;aspect=fixed;shape=mxgraph.aws4.resourceIcon;resIcon=mxgraph.aws4.states;" vertex="1" parent="1"><mxGeometry x="750" y="575" width="50" height="50" as="geometry"/></mxCell><mxCell id="33" value="states  &#xA;query" style="outlineConnect=0;fontColor=#B3B3B3;gradientColor=#aaaaaa;gradientDirection=north;fillColor=#aaaaaa;strokeColor=#ffffff;dashed=0;verticalLabelPosition=bottom;verticalAlign=top;align=center;html=1;fontSize=12;fontStyle=0;aspect=fixed;shape=mxgraph.aws4.resourceIcon;resIcon=mxgraph.aws4.states;" vertex="1" parent="1"><mxGeometry x="750" y="675" width="50" height="50" as="geometry"/></mxCell><mxCell id="34" value="states  &#xA;publish" style="outlineConnect=0;fontColor=#B3B3B3;gradientColor=#aaaaaa;gradientDirection=north;fillColor=#aaaaaa;strokeColor=#ffffff;dashed=0;verticalLabelPosition=bottom;verticalAlign=top;align=center;html=1;fontSize=12;fontStyle=0;aspect=fixed;shape=mxgraph.aws4.resourceIcon;resIcon=mxgraph.aws4.states;" vertex="1" parent="1"><mxGeometry x="750" y="775" width="50" height="50" as="geometry"/></mxCell><mxCell id="iam  aws&#xA;policy/awsxraydaemonwriteaccess|AddGopherRole" value="ManagedPolicyArns" style="edgeStyle=orthogonalEdgeStyle;rounded=1;orthogonalLoop=1;jettySize=auto;html=1;labelBackgroundColor=none;fontColor=#EA6B66;noEdgeStyle=1;orthogonal=1;" edge="1" parent="1" source="4" target="27"><mxGeometry relative="1" as="geometry"><Array as="points"><mxPoint x="62" y="260"/><mxPoint x="238" y="683.3333333333334"/></Array></mxGeometry></mxCell><mxCell id="GopherHolesTable|AddGopherRole" value="PolicyDocument" style="edgeStyle=orthogonalEdgeStyle;rounded=1;orthogonalLoop=1;jettySize=auto;html=1;labelBackgroundColor=none;fontColor=#EA6B66;noEdgeStyle=1;orthogonal=1;" edge="1" parent="1" source="4" target="19"><mxGeometry relative="1" as="geometry"><Array as="points"><mxPoint x="62" y="240"/><mxPoint x="150" y="525"/><mxPoint x="400" y="525"/><mxPoint x="400" y="350"/><mxPoint x="650" y="350"/><mxPoint x="728" y="193.33333333333337"/></Array></mxGeometry></mxCell><mxCell id="iam  aws&#xA;policy/awsxraydaemonwriteaccess|GetAllGophersRole" value="ManagedPolicyArns" style="edgeStyle=orthogonalEdgeStyle;rounded=1;orthogonalLoop=1;jettySize=auto;html=1;labelBackgroundColor=none;fontColor=#EA6B66;noEdgeStyle=1;orthogonal=1;" edge="1" parent="1" source="5" target="27"><mxGeometry relative="1" as="geometry"><Array as="points"><mxPoint x="62" y="360"/><mxPoint x="236" y="690"/></Array></mxGeometry></mxCell><mxCell id="GopherHolesTable|GetAllGophersRole" value="PolicyDocument" style="edgeStyle=orthogonalEdgeStyle;rounded=1;orthogonalLoop=1;jettySize=auto;html=1;labelBackgroundColor=none;fontColor=#EA6B66;noEdgeStyle=1;orthogonal=1;" edge="1" parent="1" source="5" target="19"><mxGeometry relative="1" as="geometry"><Array as="points"><mxPoint x="62" y="340"/><mxPoint x="150" y="575"/><mxPoint x="400" y="575"/><mxPoint x="400" y="400"/><mxPoint x="650" y="400"/><mxPoint x="726" y="196.6666666666667"/></Array></mxGeometry></mxCell><mxCell id="iam  aws&#xA;policy/awsxraydaemonwriteaccess|DeleteGopherRole" value="ManagedPolicyArns" style="edgeStyle=orthogonalEdgeStyle;rounded=1;orthogonalLoop=1;jettySize=auto;html=1;labelBackgroundColor=none;fontColor=#EA6B66;noEdgeStyle=1;orthogonal=1;" edge="1" parent="1" source="6" target="27"><mxGeometry relative="1" as="geometry"><Array as="points"><mxPoint x="62" y="460"/><mxPoint x="234" y="696.6666666666666"/></Array></mxGeometry></mxCell><mxCell id="GopherHolesTable|DeleteGopherRole" value="PolicyDocument" style="edgeStyle=orthogonalEdgeStyle;rounded=1;orthogonalLoop=1;jettySize=auto;html=1;labelBackgroundColor=none;fontColor=#EA6B66;noEdgeStyle=1;orthogonal=1;" edge="1" parent="1" source="6" target="19"><mxGeometry relative="1" as="geometry"><Array as="points"><mxPoint x="62" y="440"/><mxPoint x="150" y="625"/><mxPoint x="400" y="625"/><mxPoint x="400" y="450"/><mxPoint x="650" y="450"/><mxPoint x="724" y="200.00000000000006"/></Array></mxGeometry></mxCell><mxCell id="iam  aws&#xA;policy/awsxraydaemonwriteaccess|AddHoleRole" value="ManagedPolicyArns" style="edgeStyle=orthogonalEdgeStyle;rounded=1;orthogonalLoop=1;jettySize=auto;html=1;labelBackgroundColor=none;fontColor=#EA6B66;noEdgeStyle=1;orthogonal=1;" edge="1" parent="1" source="7" target="27"><mxGeometry relative="1" as="geometry"><Array as="points"><mxPoint x="62" y="540"/><mxPoint x="234" y="703.3333333333333"/></Array></mxGeometry></mxCell><mxCell id="GopherHolesTable|AddHoleRole" value="PolicyDocument" style="edgeStyle=orthogonalEdgeStyle;rounded=1;orthogonalLoop=1;jettySize=auto;html=1;labelBackgroundColor=none;fontColor=#EA6B66;noEdgeStyle=1;orthogonal=1;" edge="1" parent="1" source="7" target="19"><mxGeometry relative="1" as="geometry"><Array as="points"><mxPoint x="62" y="560"/><mxPoint x="150" y="775"/><mxPoint x="400" y="775"/><mxPoint x="400" y="500"/><mxPoint x="650" y="500"/><mxPoint x="726" y="203.3333333333334"/></Array></mxGeometry></mxCell><mxCell id="iam  aws&#xA;policy/awsxraydaemonwriteaccess|AddHoleStatusRole" value="ManagedPolicyArns" style="edgeStyle=orthogonalEdgeStyle;rounded=1;orthogonalLoop=1;jettySize=auto;html=1;labelBackgroundColor=none;fontColor=#EA6B66;noEdgeStyle=1;orthogonal=1;" edge="1" parent="1" source="8" target="27"><mxGeometry relative="1" as="geometry"><Array as="points"><mxPoint x="62" y="640"/><mxPoint x="236" y="709.9999999999999"/></Array></mxGeometry></mxCell><mxCell id="GopherHolesTable|AddHoleStatusRole" value="PolicyDocument" style="edgeStyle=orthogonalEdgeStyle;rounded=1;orthogonalLoop=1;jettySize=auto;html=1;labelBackgroundColor=none;fontColor=#EA6B66;noEdgeStyle=1;orthogonal=1;" edge="1" parent="1" source="8" target="19"><mxGeometry relative="1" as="geometry"><Array as="points"><mxPoint x="62" y="660"/><mxPoint x="150" y="825"/><mxPoint x="400" y="825"/><mxPoint x="400" y="550"/><mxPoint x="650" y="550"/><mxPoint x="728" y="206.66666666666674"/></Array></mxGeometry></mxCell><mxCell id="iam  aws&#xA;policy/awsxraydaemonwriteaccess|GetAllHolesRole" value="ManagedPolicyArns" style="edgeStyle=orthogonalEdgeStyle;rounded=1;orthogonalLoop=1;jettySize=auto;html=1;labelBackgroundColor=none;fontColor=#EA6B66;noEdgeStyle=1;orthogonal=1;" edge="1" parent="1" source="9" target="27"><mxGeometry relative="1" as="geometry"><Array as="points"><mxPoint x="62" y="740"/><mxPoint x="238" y="716.6666666666665"/></Array></mxGeometry></mxCell><mxCell id="GopherHolesTable|GetAllHolesRole" value="PolicyDocument" style="edgeStyle=orthogonalEdgeStyle;rounded=1;orthogonalLoop=1;jettySize=auto;html=1;labelBackgroundColor=none;fontColor=#EA6B66;noEdgeStyle=1;orthogonal=1;" edge="1" parent="1" source="9" target="19"><mxGeometry relative="1" as="geometry"><Array as="points"><mxPoint x="62" y="760"/><mxPoint x="150" y="875"/><mxPoint x="400" y="875"/><mxPoint x="400" y="600"/><mxPoint x="650" y="600"/><mxPoint x="730" y="210.00000000000009"/></Array></mxGeometry></mxCell><mxCell id="GopherStatusChangedSNSTopic|AddGopherStatusFunction" value="Statement&#xA;Variable" style="edgeStyle=orthogonalEdgeStyle;rounded=1;orthogonalLoop=1;jettySize=auto;html=1;labelBackgroundColor=none;fontColor=#EA6B66;noEdgeStyle=1;orthogonal=1;" edge="1" parent="1" source="13" target="10"><mxGeometry relative="1" as="geometry"><Array as="points"><mxPoint x="312" y="60"/><mxPoint x="488" y="75"/></Array></mxGeometry></mxCell><mxCell id="GopherHolesApi|AddGopherStatusFunction" value="Invoke" style="edgeStyle=orthogonalEdgeStyle;rounded=1;orthogonalLoop=1;jettySize=auto;html=1;fillColor=#1ba1e2;strokeColor=#006EAF;labelBackgroundColor=none;fontColor=#7EA6E0;noEdgeStyle=1;orthogonal=1;" edge="1" parent="1" source="3" target="13"><mxGeometry relative="1" as="geometry"><Array as="points"><mxPoint x="62" y="134"/><mxPoint x="238" y="50"/></Array></mxGeometry></mxCell><mxCell id="GopherHolesTable|AddGopherStatusFunction" value="Statement" style="edgeStyle=orthogonalEdgeStyle;rounded=1;orthogonalLoop=1;jettySize=auto;html=1;labelBackgroundColor=none;fontColor=#EA6B66;noEdgeStyle=1;orthogonal=1;" edge="1" parent="1" source="13" target="19"><mxGeometry relative="1" as="geometry"><Array as="points"><mxPoint x="312" y="40"/><mxPoint x="400"/><mxPoint x="650"/><mxPoint x="738" y="176.66666666666666"/></Array></mxGeometry></mxCell><mxCell id="GopherHolesApi|GetGopherFunction" value="Invoke" style="edgeStyle=orthogonalEdgeStyle;rounded=1;orthogonalLoop=1;jettySize=auto;html=1;fillColor=#1ba1e2;strokeColor=#006EAF;labelBackgroundColor=none;fontColor=#7EA6E0;noEdgeStyle=1;orthogonal=1;" edge="1" parent="1" source="3" target="14"><mxGeometry relative="1" as="geometry"><Array as="points"><mxPoint x="64" y="142"/><mxPoint x="238" y="150"/></Array></mxGeometry></mxCell><mxCell id="GopherHolesTable|GetGopherFunction" value="Statement" style="edgeStyle=orthogonalEdgeStyle;rounded=1;orthogonalLoop=1;jettySize=auto;html=1;labelBackgroundColor=none;fontColor=#EA6B66;noEdgeStyle=1;orthogonal=1;" edge="1" parent="1" source="14" target="19"><mxGeometry relative="1" as="geometry"><Array as="points"><mxPoint x="312" y="150"/><mxPoint x="400" y="150"/><mxPoint x="650" y="150"/><mxPoint x="736" y="180"/></Array></mxGeometry></mxCell><mxCell id="GopherHolesApi|UpdateGopherFunction" value="Invoke" style="edgeStyle=orthogonalEdgeStyle;rounded=1;orthogonalLoop=1;jettySize=auto;html=1;fillColor=#1ba1e2;strokeColor=#006EAF;labelBackgroundColor=none;fontColor=#7EA6E0;noEdgeStyle=1;orthogonal=1;" edge="1" parent="1" source="3" target="15"><mxGeometry relative="1" as="geometry"><Array as="points"><mxPoint x="66" y="150"/><mxPoint x="238" y="250"/></Array></mxGeometry></mxCell><mxCell id="GopherHolesTable|UpdateGopherFunction" value="Statement" style="edgeStyle=orthogonalEdgeStyle;rounded=1;orthogonalLoop=1;jettySize=auto;html=1;labelBackgroundColor=none;fontColor=#EA6B66;noEdgeStyle=1;orthogonal=1;" edge="1" parent="1" source="15" target="19"><mxGeometry relative="1" as="geometry"><Array as="points"><mxPoint x="312" y="250"/><mxPoint x="400" y="200"/><mxPoint x="650" y="200"/><mxPoint x="734" y="183.33333333333334"/></Array></mxGeometry></mxCell><mxCell id="GopherHolesApi|GetHoleFunction" value="Invoke" style="edgeStyle=orthogonalEdgeStyle;rounded=1;orthogonalLoop=1;jettySize=auto;html=1;fillColor=#1ba1e2;strokeColor=#006EAF;labelBackgroundColor=none;fontColor=#7EA6E0;noEdgeStyle=1;orthogonal=1;" edge="1" parent="1" source="3" target="16"><mxGeometry relative="1" as="geometry"><Array as="points"><mxPoint x="64" y="158"/><mxPoint x="238" y="350"/></Array></mxGeometry></mxCell><mxCell id="GopherHolesTable|GetHoleFunction" value="Statement" style="edgeStyle=orthogonalEdgeStyle;rounded=1;orthogonalLoop=1;jettySize=auto;html=1;labelBackgroundColor=none;fontColor=#EA6B66;noEdgeStyle=1;orthogonal=1;" edge="1" parent="1" source="16" target="19"><mxGeometry relative="1" as="geometry"><Array as="points"><mxPoint x="312" y="350"/><mxPoint x="400" y="250"/><mxPoint x="650" y="250"/><mxPoint x="732" y="186.66666666666669"/></Array></mxGeometry></mxCell><mxCell id="GopherHolesApi|UpdateHoleFunction" value="Invoke" style="edgeStyle=orthogonalEdgeStyle;rounded=1;orthogonalLoop=1;jettySize=auto;html=1;fillColor=#1ba1e2;strokeColor=#006EAF;labelBackgroundColor=none;fontColor=#7EA6E0;noEdgeStyle=1;orthogonal=1;" edge="1" parent="1" source="3" target="17"><mxGeometry relative="1" as="geometry"><Array as="points"><mxPoint x="62" y="166"/><mxPoint x="238" y="450"/></Array></mxGeometry></mxCell><mxCell id="GopherHolesTable|UpdateHoleFunction" value="Statement" style="edgeStyle=orthogonalEdgeStyle;rounded=1;orthogonalLoop=1;jettySize=auto;html=1;labelBackgroundColor=none;fontColor=#EA6B66;noEdgeStyle=1;orthogonal=1;" edge="1" parent="1" source="17" target="19"><mxGeometry relative="1" as="geometry"><Array as="points"><mxPoint x="312" y="450"/><mxPoint x="400" y="300"/><mxPoint x="650" y="300"/><mxPoint x="730" y="190.00000000000003"/></Array></mxGeometry></mxCell><mxCell id="events  &#xA;event-bus/default|GopherHolesTableStream" value="Statement" style="edgeStyle=orthogonalEdgeStyle;rounded=1;orthogonalLoop=1;jettySize=auto;html=1;labelBackgroundColor=none;fontColor=#EA6B66;noEdgeStyle=1;orthogonal=1;" edge="1" parent="1" source="18" target="28"><mxGeometry relative="1" as="geometry"><Array as="points"><mxPoint x="316" y="1000"/><mxPoint x="400" y="850"/><mxPoint x="650" y="850"/><mxPoint x="738" y="290"/></Array></mxGeometry></mxCell><mxCell id="AddGopherStateMachine|GopherHolesTableStream" value="Statement&#xA;Variable" style="edgeStyle=orthogonalEdgeStyle;rounded=1;orthogonalLoop=1;jettySize=auto;html=1;labelBackgroundColor=none;fontColor=#EA6B66;noEdgeStyle=1;orthogonal=1;" edge="1" parent="1" source="18" target="25"><mxGeometry relative="1" as="geometry"><Array as="points"><mxPoint x="312" y="1016"/><mxPoint x="488" y="1075"/></Array></mxGeometry></mxCell><mxCell id="GopherUpdatedSNSTopic|GopherHolesTableStream" value="Statement&#xA;Variable" style="edgeStyle=orthogonalEdgeStyle;rounded=1;orthogonalLoop=1;jettySize=auto;html=1;labelBackgroundColor=none;fontColor=#EA6B66;noEdgeStyle=1;orthogonal=1;" edge="1" parent="1" source="18" target="12"><mxGeometry relative="1" as="geometry"><Array as="points"><mxPoint x="314" y="992"/><mxPoint x="488" y="775"/></Array></mxGeometry></mxCell><mxCell id="GopherHolesTable|GopherHolesTableStream" value="Statement" style="edgeStyle=orthogonalEdgeStyle;rounded=1;orthogonalLoop=1;jettySize=auto;html=1;labelBackgroundColor=none;fontColor=#EA6B66;noEdgeStyle=1;orthogonal=1;" edge="1" parent="1" source="18" target="19"><mxGeometry relative="1" as="geometry"><Array as="points"><mxPoint x="312" y="984"/><mxPoint x="400" y="700"/><mxPoint x="650" y="700"/><mxPoint x="734" y="216.66666666666677"/></Array></mxGeometry></mxCell><mxCell id="ProcessTableDeadLetterQueue|GopherHolesTableStream" value="Statement" style="edgeStyle=orthogonalEdgeStyle;rounded=1;orthogonalLoop=1;jettySize=auto;html=1;labelBackgroundColor=none;fontColor=#EA6B66;noEdgeStyle=1;orthogonal=1;" edge="1" parent="1" source="18" target="21"><mxGeometry relative="1" as="geometry"><Array as="points"><mxPoint x="314" y="1008"/><mxPoint x="488" y="915"/></Array></mxGeometry></mxCell><mxCell id="GopherHolesTable|ProcessTableStream" value="EventSourceArn" style="edgeStyle=orthogonalEdgeStyle;rounded=1;orthogonalLoop=1;jettySize=auto;html=1;labelBackgroundColor=none;fontColor=#EA6B66;noEdgeStyle=1;orthogonal=1;" edge="1" parent="1" source="20" target="19"><mxGeometry relative="1" as="geometry"><Array as="points"><mxPoint x="62" y="836.6666666666666"/><mxPoint x="150" y="925"/><mxPoint x="400" y="925"/><mxPoint x="400" y="650"/><mxPoint x="650" y="650"/><mxPoint x="732" y="213.33333333333343"/></Array></mxGeometry></mxCell><mxCell id="GopherHolesTableStream|ProcessTableStream" value="FunctionName" style="edgeStyle=orthogonalEdgeStyle;rounded=1;orthogonalLoop=1;jettySize=auto;html=1;labelBackgroundColor=none;fontColor=#EA6B66;noEdgeStyle=1;orthogonal=1;" edge="1" parent="1" source="20" target="18"><mxGeometry relative="1" as="geometry"><Array as="points"><mxPoint x="64" y="850"/><mxPoint x="238" y="1000"/></Array></mxGeometry></mxCell><mxCell id="ProcessTableDeadLetterQueue|ProcessTableStream" value="Destination" style="edgeStyle=orthogonalEdgeStyle;rounded=1;orthogonalLoop=1;jettySize=auto;html=1;labelBackgroundColor=none;fontColor=#EA6B66;noEdgeStyle=1;orthogonal=1;" edge="1" parent="1" source="20" target="21"><mxGeometry relative="1" as="geometry"><Array as="points"><mxPoint x="62" y="863.3333333333334"/><mxPoint x="150" y="1075"/><mxPoint x="400" y="1075"/><mxPoint x="488" y="935"/></Array></mxGeometry></mxCell><mxCell id="GopherHolesTable|LinkUnlinkGopherHoleFunction" value="Statement" style="edgeStyle=orthogonalEdgeStyle;rounded=1;orthogonalLoop=1;jettySize=auto;html=1;labelBackgroundColor=none;fontColor=#EA6B66;noEdgeStyle=1;orthogonal=1;" edge="1" parent="1" source="22" target="19"><mxGeometry relative="1" as="geometry"><Array as="points"><mxPoint x="312" y="1140"/><mxPoint x="400" y="1000"/><mxPoint x="650" y="1000"/><mxPoint x="736" y="220.0000000000001"/></Array></mxGeometry></mxCell><mxCell id="LinkUnlinkGopherHoleProcessorDLQ|LinkUnlinkGopherHoleFunction" value="Destination" style="edgeStyle=orthogonalEdgeStyle;rounded=1;orthogonalLoop=1;jettySize=auto;html=1;labelBackgroundColor=none;fontColor=#EA6B66;noEdgeStyle=1;orthogonal=1;" edge="1" parent="1" source="22" target="24"><mxGeometry relative="1" as="geometry"><Array as="points"><mxPoint x="312" y="1160"/><mxPoint x="488" y="1175"/></Array></mxGeometry></mxCell><mxCell id="LinkUnlinkGopherHoleDeliveryDLQ|LinkUnlinkGopherHoleFunction" value="Invoke" style="edgeStyle=orthogonalEdgeStyle;rounded=1;orthogonalLoop=1;jettySize=auto;html=1;fillColor=#1ba1e2;strokeColor=#006EAF;labelBackgroundColor=none;fontColor=#7EA6E0;noEdgeStyle=1;orthogonal=1;" edge="1" parent="1" source="23" target="22"><mxGeometry relative="1" as="geometry"><Array as="points"><mxPoint x="62" y="1150"/><mxPoint x="238" y="1160"/></Array></mxGeometry></mxCell><mxCell id="states  &#xA;getitem|AddGopherStateMachine" value="DynamoDbGetItem" style="edgeStyle=orthogonalEdgeStyle;rounded=1;orthogonalLoop=1;jettySize=auto;html=1;labelBackgroundColor=none;fontColor=#EA6B66;noEdgeStyle=1;orthogonal=1;" edge="1" parent="1" source="25" target="29"><mxGeometry relative="1" as="geometry"><Array as="points"><mxPoint x="562" y="1097.222222222223"/><mxPoint x="738" y="1075"/></Array></mxGeometry></mxCell><mxCell id="states  &#xA;putevents|AddGopherStateMachine" value="EventBridgePutEvents" style="edgeStyle=orthogonalEdgeStyle;rounded=1;orthogonalLoop=1;jettySize=auto;html=1;labelBackgroundColor=none;fontColor=#EA6B66;noEdgeStyle=1;orthogonal=1;" edge="1" parent="1" source="25" target="30"><mxGeometry relative="1" as="geometry"><Array as="points"><mxPoint x="566" y="1063.8888888888891"/><mxPoint x="738" y="400"/></Array></mxGeometry></mxCell><mxCell id="states  &#xA;updateitem|AddGopherStateMachine" value="DynamoDbUpdateItem" style="edgeStyle=orthogonalEdgeStyle;rounded=1;orthogonalLoop=1;jettySize=auto;html=1;labelBackgroundColor=none;fontColor=#EA6B66;noEdgeStyle=1;orthogonal=1;" edge="1" parent="1" source="25" target="31"><mxGeometry relative="1" as="geometry"><Array as="points"><mxPoint x="568" y="1069.4444444444448"/><mxPoint x="738" y="500"/></Array></mxGeometry></mxCell><mxCell id="states  &#xA;putitem|AddGopherStateMachine" value="DynamoDbPutItem" style="edgeStyle=orthogonalEdgeStyle;rounded=1;orthogonalLoop=1;jettySize=auto;html=1;labelBackgroundColor=none;fontColor=#EA6B66;noEdgeStyle=1;orthogonal=1;" edge="1" parent="1" source="25" target="32"><mxGeometry relative="1" as="geometry"><Array as="points"><mxPoint x="570" y="1075.0000000000005"/><mxPoint x="738" y="600"/></Array></mxGeometry></mxCell><mxCell id="states  &#xA;query|AddGopherStateMachine" value="DynamoDbQuery" style="edgeStyle=orthogonalEdgeStyle;rounded=1;orthogonalLoop=1;jettySize=auto;html=1;labelBackgroundColor=none;fontColor=#EA6B66;noEdgeStyle=1;orthogonal=1;" edge="1" parent="1" source="25" target="33"><mxGeometry relative="1" as="geometry"><Array as="points"><mxPoint x="568" y="1080.555555555556"/><mxPoint x="738" y="700"/></Array></mxGeometry></mxCell><mxCell id="states  &#xA;publish|AddGopherStateMachine" value="SnsPublish" style="edgeStyle=orthogonalEdgeStyle;rounded=1;orthogonalLoop=1;jettySize=auto;html=1;labelBackgroundColor=none;fontColor=#EA6B66;noEdgeStyle=1;orthogonal=1;" edge="1" parent="1" source="25" target="34"><mxGeometry relative="1" as="geometry"><Array as="points"><mxPoint x="566" y="1086.1111111111118"/><mxPoint x="738" y="800"/></Array></mxGeometry></mxCell><mxCell id="GopherAddedSNSTopic|AddGopherStateMachine" value="GopherAddedTopic&#xA;Statement" style="edgeStyle=orthogonalEdgeStyle;rounded=1;orthogonalLoop=1;jettySize=auto;html=1;labelBackgroundColor=none;fontColor=#EA6B66;noEdgeStyle=1;orthogonal=1;" edge="1" parent="1" source="25" target="11"><mxGeometry relative="1" as="geometry"><Array as="points"><mxPoint x="564" y="1091.6666666666674"/><mxPoint x="738" y="900"/></Array></mxGeometry></mxCell><mxCell id="events  &#xA;event-bus/default|AddGopherStateMachine" value="Statement" style="edgeStyle=orthogonalEdgeStyle;rounded=1;orthogonalLoop=1;jettySize=auto;html=1;labelBackgroundColor=none;fontColor=#EA6B66;noEdgeStyle=1;orthogonal=1;" edge="1" parent="1" source="25" target="28"><mxGeometry relative="1" as="geometry"><Array as="points"><mxPoint x="564" y="1058.3333333333335"/><mxPoint x="738" y="310"/></Array></mxGeometry></mxCell><mxCell id="GopherHolesTable|AddGopherStateMachine" value="Statement" style="edgeStyle=orthogonalEdgeStyle;rounded=1;orthogonalLoop=1;jettySize=auto;html=1;labelBackgroundColor=none;fontColor=#EA6B66;noEdgeStyle=1;orthogonal=1;" edge="1" parent="1" source="25" target="19"><mxGeometry relative="1" as="geometry"><Array as="points"><mxPoint x="562" y="1052.7777777777778"/><mxPoint x="738" y="223.33333333333346"/></Array></mxGeometry></mxCell><mxCell id="LinkUnlinkGopherHoleFunction|LinkUnlinkGopherHoleFunctionGopherHoleLinkedEvent" value="Arn" style="edgeStyle=orthogonalEdgeStyle;rounded=1;orthogonalLoop=1;jettySize=auto;html=1;labelBackgroundColor=none;fontColor=#EA6B66;noEdgeStyle=1;orthogonal=1;" edge="1" parent="1" source="26" target="22"><mxGeometry relative="1" as="geometry"><Array as="points"><mxPoint x="62" y="950"/><mxPoint x="238" y="1140"/></Array></mxGeometry></mxCell></root></mxGraphModel>
            </diagram>
          </mxfile>